<svg width="64" height="13.000000000000002" xmlns="http://www.w3.org/2000/svg">
 <g>
  <title>background</title>
  <rect x="-1" y="-1" width="66" height="15" id="canvas_background" fill="none"/>
 </g>

 <g>
  <title>Layer 1</title>
  <path clip-rule="evenodd" d="m26.17272,9.681883c-2.4,1.799999 -5.799999,2.700001 -8.799999,2.700001c-4.199993,0 -7.899993,-1.5 -10.699993,-4.100002c-0.2,-0.199997 0,-0.5 0.2,-0.299999c3.1,1.799999 6.8,2.799999 10.699992,2.799999c2.6,0 5.5,-0.5 8.200001,-1.699997c0.4,-0.200001 0.700001,0.299999 0.4,0.599998z" fill="#F7981D" fill-rule="evenodd" id="svg_6"/>
  <path clip-rule="evenodd" d="m26.17272,9.681883c-2.4,1.799999 -5.799999,2.700001 -8.799999,2.700001c-4.199993,0 -7.899993,-1.5 -10.699993,-4.100002c-0.2,-0.199997 0,-0.5 0.2,-0.299999c3.1,1.799999 6.8,2.799999 10.699992,2.799999c2.6,0 5.5,-0.5 8.200001,-1.699997c0.4,-0.200001 0.700001,0.299999 0.4,0.599998z" fill="#F7981D" fill-rule="evenodd" id="svg_9"/>
  <path clip-rule="evenodd" d="m26.17272,9.081884c-2.4,1.699997 -5.799999,2.599998 -8.699999,2.599998c-3.899993,0 -7.399993,-1.400002 -10.099994,-3.599998c-0.099999,-0.100002 -0.299999,-0.100002 -0.4,-0.200001c-0.3,-0.200001 -0.5,0.099998 -0.2,0.299999c2.8,2.599998 6.6,4.099998 10.699993,4.099998c3,0 6.4,-0.899998 8.799999,-2.699997c0.1,-0.100002 0.1,-0.400002 -0.1,-0.5z" fill="#E86E00" fill-rule="evenodd" id="svg_11"/>
  <path clip-rule="evenodd" d="m27.07272,8.481882c-0.299999,-0.399998 -2,-0.200001 -2.799999,-0.099998c-0.200001,0 -0.299999,-0.200001 -0.1,-0.299999c1.4,-1 3.6,-0.700001 3.800001,-0.400002c0.299999,0.299999 -0.1,2.599998 -1.300001,3.599998c-0.199999,0.200001 -0.4,0.100002 -0.299999,-0.099998c0.4,-0.700001 1,-2.299999 0.699999,-2.700001z" fill="#F7981D" fill-rule="evenodd" id="svg_14"/>
  <path clip-rule="evenodd" d="m28.17272,7.781881c0.300001,0.300003 -0.1,2.600002 -1.299999,3.600002c-0.200001,0.200001 -0.4,0.099998 -0.300001,-0.100002c0.300001,-0.699997 0.900002,-2.299999 0.6,-2.699997" fill="#E86E00" fill-rule="evenodd" id="svg_17"/>
  <path clip-rule="evenodd" d="m24.372721,1.381884l0,-0.900001c0,-0.099998 0.1,-0.199999 0.199999,-0.199999l4.200001,0c0.1,0 0.200001,0.1 0.200001,0.199999l0,0.800001c0,0.1 -0.1,0.299999 -0.300001,0.600001l-2.199999,3.099998c0.799999,0 1.599998,0.1 2.4,0.5c0.199999,0.1 0.199999,0.200001 0.199999,0.400002l0,1c0,0.099998 -0.099998,0.299999 -0.299999,0.200001c-1.299999,-0.700001 -3,-0.700001 -4.4,0c-0.1,0.099998 -0.300001,-0.100002 -0.300001,-0.200001l0,-0.900002c0,-0.099998 0,-0.4 0.200001,-0.599998l2.5,-3.6l-2.200001,0c-0.099998,-0.200001 -0.199999,-0.300001 -0.199999,-0.4z" fill-rule="evenodd" id="svg_21"/>
  <path clip-rule="evenodd" d="m9.272728,7.181883l-1.3,0c-0.1,0 -0.2,-0.099998 -0.2,-0.200001l0,-6.499999c0,-0.099998 0.099999,-0.199999 0.2,-0.199999l1.2,0c0.1,0 0.200001,0.1 0.200001,0.199999l0,0.800001l0,0c0.299999,-0.800001 0.9,-1.200001 1.7,-1.200001c0.8,0 1.3,0.4 1.599999,1.200001c0.3,-0.800001 1,-1.200001 1.700001,-1.200001c0.5,0 1.099999,0.200001 1.5,0.700001c0.399996,0.5 0.299997,1.3 0.299997,2l0,4.099999c0,0.099998 -0.099998,0.200001 -0.199998,0.200001l-1.3,0c-0.099999,0 -0.2,-0.100002 -0.2,-0.200001l0,-3.400001c0,-0.299999 0,-1 0,-1.199999c-0.099999,-0.4 -0.4,-0.600001 -0.7,-0.600001c-0.3,0 -0.6,0.200001 -0.8,0.5c-0.099999,0.299999 -0.099999,0.9 -0.099999,1.200001l0,3.399997c0,0.100002 -0.1,0.200001 -0.200001,0.200001l-1.299999,0c-0.1,0 -0.200001,-0.099998 -0.200001,-0.200001l0,-3.399997c0,-0.700001 0.1,-1.800002 -0.799999,-1.800002c-0.900001,0 -0.900001,1 -0.900001,1.800002l0,3.399997c0,0.300003 -0.099999,0.400002 -0.2,0.400002z" fill-rule="evenodd" id="svg_24"/>
  <path clip-rule="evenodd" d="m32.57272,0.081883c1.900002,0 2.900002,1.6 2.900002,3.700001c0,1.999999 -1.100002,3.6 -2.900002,3.6c-1.799999,0 -2.799999,-1.6 -2.799999,-3.6c0,-2.100001 1,-3.700001 2.799999,-3.700001zm0,1.300001c-0.9,0 -1,1.3 -1,2.099999s0,2.499999 1,2.499999c1,0 1,-1.4 1,-2.199998c0,-0.5 0,-1.200001 -0.200001,-1.700001c-0.099998,-0.5 -0.399998,-0.699999 -0.799999,-0.699999z" fill-rule="evenodd" id="svg_27"/>
  <path clip-rule="evenodd" d="m37.972721,7.181883l-1.299999,0c-0.100002,0 -0.200001,-0.099998 -0.200001,-0.200001l0,-6.499999c0,-0.099998 0.099998,-0.199999 0.200001,-0.199999l1.199997,0c0.100002,0 0.200001,0.1 0.200001,0.199999l0,1l0,0c0.400002,-0.9 0.799999,-1.299999 1.700001,-1.299999c0.599998,0 1.099998,0.200001 1.5,0.799999c0.299999,0.5 0.299999,1.400002 0.299999,2l0,4.100001c0,0.099998 -0.099998,0.199997 -0.200001,0.199997l-1.299999,0c-0.099998,0 -0.200001,-0.099998 -0.200001,-0.199997l0,-3.500001c0,-0.699999 0.100002,-1.699999 -0.799999,-1.699999c-0.299999,0 -0.599998,0.199999 -0.700001,0.5c-0.199997,0.4 -0.199997,0.799999 -0.199997,1.199999l0,3.500001c0,0 -0.100002,0.099998 -0.200001,0.099998z" fill-rule="evenodd" id="svg_30"/>
  <path clip-rule="evenodd" d="m21.07272,4.081882c0,0.5 0,0.9 -0.199999,1.300001c-0.200001,0.4 -0.5,0.599998 -0.9,0.599998c-0.5,0 -0.800001,-0.4 -0.800001,-0.9c0,-1.1 1,-1.299999 1.9,-1.299999l0,0.299999zm1.300001,3.1c-0.1,0 -0.200001,0 -0.300001,0c-0.4,-0.299999 -0.5,-0.5 -0.699999,-0.799999c-0.700001,0.700001 -1.200001,0.899998 -2.1,0.899998c-1.1,0 -1.9,-0.699997 -1.9,-1.999998c0,-1 0.6,-1.7 1.299999,-2.099999c0.700001,-0.299999 1.6,-0.4 2.4,-0.4l0,-0.200001c0,-0.299999 0,-0.699999 -0.199999,-0.9c-0.200001,-0.200001 -0.4,-0.299999 -0.700001,-0.299999c-0.5,0 -0.9,0.199999 -1,0.8c0,0.1 -0.1,0.200001 -0.199999,0.200001l-1.200001,-0.200001c-0.1,0 -0.200001,-0.1 -0.200001,-0.299999c0.300001,-1.5 1.6,-1.900002 2.800001,-1.900002c0.6,0 1.4,0.200001 1.9,0.6c0.6,0.6 0.6,1.300001 0.6,2.200001l0,1.999999c0,0.6 0.199999,0.9 0.5,1.199999c0.1,0.1 0.1,0.299999 0,0.299999c-0.300001,0.200001 -0.800001,0.600002 -1,0.900002l0,0z" fill-rule="evenodd" id="svg_45"/>
  <path clip-rule="evenodd" d="m4.472727,4.081882c0,0.5 0,0.9 -0.2,1.300001c-0.200001,0.4 -0.500001,0.599998 -0.900001,0.599998c-0.5,0 -0.8,-0.4 -0.8,-0.9c0,-1.1 1,-1.299999 1.900001,-1.299999l0,0.299999zm1.300001,3.1c-0.1,0 -0.2,0 -0.3,0c-0.4,-0.299999 -0.5,-0.5 -0.7,-0.799999c-0.700002,0.700001 -1.200002,0.899998 -2.100002,0.899998c-1.099999,0 -1.899999,-0.699997 -1.899999,-1.999998c0,-1 0.6,-1.7 1.3,-2.099999c0.699999,-0.299999 1.599999,-0.4 2.4,-0.4l0,-0.200001c0,-0.299999 0,-0.699999 -0.2,-0.9c-0.200001,-0.200001 -0.500001,-0.299999 -0.700001,-0.299999c-0.5,0 -0.9,0.199999 -1,0.8c0,0.1 -0.1,0.200001 -0.2,0.200001l-1.199999,-0.200001c-0.1,0 -0.2,-0.1 -0.2,-0.299999c0.3,-1.5 1.599999,-1.900002 2.799999,-1.900002c0.600001,0 1.400002,0.200001 1.900002,0.6c0.7,0.6 0.6,1.4 0.6,2.200001l0,1.999999c0,0.6 0.2,0.9 0.5,1.199999c0.099999,0.1 0.099999,0.299999 0,0.299999c-0.3,0.200001 -0.7,0.600002 -1,0.900002l0,0z" fill-rule="evenodd" id="svg_48"/>
  <path clip-rule="evenodd" d="m39.872719,0.081883c-0.899998,0 -1.399998,0.4 -1.699997,1.300001l0,0l0,-1c0,-0.1 -0.100002,-0.200001 -0.200001,-0.200001l-1.200001,0c-0.099998,0 -0.200001,0.1 -0.200001,0.200001l0,2c1.700001,-0.600001 3.200001,-1.200001 4.5,-1.900002c-0.399998,-0.299999 -0.799999,-0.4 -1.200001,-0.4z" fill="#545E60" fill-rule="evenodd" id="svg_50"/>
  <path clip-rule="evenodd" d="m32.57272,0.081883c-1.799999,0 -2.799999,1.6 -2.799999,3.600001c0,0.2 0,0.299999 0,0.499999c0.6,-0.1 1.200001,-0.299999 1.799999,-0.399999c0,-0.1 0,-0.200001 0,-0.300001c0,-0.799999 0.1,-2.099999 1,-2.099999c0.400002,0 0.700001,0.199999 0.799999,0.599999c0.100002,0.400002 0.200001,0.800001 0.200001,1.200001c0.600002,-0.200001 1.200001,-0.299999 1.799999,-0.5c-0.299999,-1.5 -1.199997,-2.600001 -2.799999,-2.600001z" fill="#545E60" fill-rule="evenodd" id="svg_52"/>
  <path clip-rule="evenodd" d="m28.77272,0.181883l-4.200001,0c-0.099998,0 -0.199999,0.1 -0.199999,0.200001l0,0.9c0,0.1 0.1,0.199999 0.199999,0.199999l2.200001,0l-2.299999,3.400001c0.799999,-0.1 1.5,-0.200001 2.199999,-0.300001l2,-2.899999c0.200001,-0.299999 0.300001,-0.5 0.300001,-0.6l0,-0.799999c0.099998,0 -0.1,-0.1 -0.200001,-0.1z" fill="#545E60" fill-rule="evenodd" id="svg_54"/>
  <path clip-rule="evenodd" d="m22.27272,0.681883c-0.5,-0.5 -1.299999,-0.6 -1.9,-0.6c-1.200001,0 -2.5,0.4 -2.800001,1.9c0,0.200001 0.1,0.200001 0.200001,0.300001l1.200001,0.1c0.099998,0 0.199999,-0.1 0.199999,-0.200001c0.1,-0.5 0.5,-0.8 1,-0.8c0.300001,0 0.6,0.099998 0.700001,0.299999c0.199999,0.3 0.199999,0.600001 0.199999,0.9l0,0.200001c-0.699999,0.1 -1.699999,0.1 -2.4,0.4c-0.799999,0.299999 -1.299999,0.999999 -1.299999,2.099999c0.299999,0 0.6,0 0.799999,0c0.300001,0 0.700001,0 1,0c0,-0.1 0,-0.1 0,-0.200001c0,-1.1 1,-1.299999 1.9,-1.299999l0,0.299999c0,0.4 0,0.800001 -0.199999,1.200001c0.699999,0 1.299999,-0.1 2,-0.1c0,-0.1 0,-0.200001 0,-0.299999l0,-1.999999c0,-0.900002 0,-1.700001 -0.6,-2.200001z" fill="#545E60" fill-rule="evenodd" id="svg_56"/>
  <path clip-rule="evenodd" d="m14.472728,0.081883c-0.7,0 -1.4,0.4 -1.7,1.200001c-0.4,-0.800001 -0.9,-1.200001 -1.6,-1.200001c-0.799999,0 -1.4,0.4 -1.7,1.200001l0,0l0,-0.800001c-0.099999,-0.199999 -0.2,-0.299999 -0.3,-0.299999l-1.2,0c-0.1,0 -0.2,0.1 -0.2,0.200001l0,3.899999c0.6,0.1 1.1,0.199999 1.7,0.299999l0,-1.199998c0,-0.800001 0,-1.800002 0.900001,-1.800002c0.9,0 0.799999,1.100001 0.799999,1.800002l0,1.399999c0.6,0.1 1.200001,0.1 1.700001,0.199999l0,-1.599998c0,-0.400002 0,-0.900002 0.099999,-1.200001c0.1,-0.299999 0.400001,-0.5 0.8,-0.5c0.4,0 0.7,0.100001 0.7,0.600001c0.1,0.299999 0,0.9 0,1.199999l0,1.7c0.6,0 1.2,0.1 1.699998,0.1l0,-2.399999c0,-0.700001 0.099998,-1.5 -0.299997,-2c-0.3,-0.6 -0.900001,-0.800001 -1.400001,-0.800001z" fill="#545E60" fill-rule="evenodd" id="svg_58"/>
  <path clip-rule="evenodd" d="m3.772726,-0.018117c-1.2,0 -2.499999,0.400001 -2.799999,1.900002c0,0.199999 0.1,0.199999 0.2,0.299999l1.199999,0.1c0.1,0 0.2,-0.1 0.2,-0.200001c0.1,-0.5 0.5,-0.8 1,-0.8c0.3,0 0.6,0.1 0.700001,0.299999c0.2,0.300001 0.2,0.600001 0.2,0.9l0,0.200001c-0.600001,0.200001 -1.500001,0.200001 -2.200001,0.5c1.299999,0.4 2.600001,0.7 4.000002,0.999999l0,-1.299998c0,-0.800001 0.099999,-1.600001 -0.6,-2.200001c-0.4,-0.5 -1.200001,-0.700001 -1.900002,-0.700001z" fill="#545E60" fill-rule="evenodd" id="svg_60"/>
  <text fill="#f7981d" stroke="null" stroke-width="0" stroke-opacity="null" x="45.718877" y="-25.59933" id="svg_61" font-size="24" font-family="Helvetica, Arial, sans-serif" text-anchor="start" xml:space="preserve" transform="matrix(0.461781, 0, 0, 0.461781, 24.1105, 17.8039)">p</text>
  <text fill="#f7981d" stroke="null" stroke-width="0" stroke-opacity="null" x="53.359713" y="-39.321261" id="svg_62" font-size="24" font-family="Helvetica, Arial, sans-serif" text-anchor="start" xml:space="preserve" transform="matrix(0.493506, 0, 0, 0.493506, 24.923, 25.8903)">a</text>
  <text fill="#f7981d" stroke="null" stroke-width="0" stroke-opacity="null" fill-opacity="null" x="54.020006" y="-50.097751" id="svg_63" font-size="24" font-family="Helvetica, Arial, sans-serif" text-anchor="start" xml:space="preserve" transform="matrix(0.454751, 0, 0, 0.454751, 33.349, 28.8149)">y</text>
 </g>
</svg>