<?xml version="1.0" encoding="utf-8"?>
<!-- Generator: Adobe Illustrator 21.1.0, SVG Export Plug-In . SVG Version: 6.00 Build 0)  -->
<svg version="1.1" id="Layer_1" xmlns="http://www.w3.org/2000/svg" xmlns:xlink="http://www.w3.org/1999/xlink" x="0px" y="0px"
	 viewBox="0 0 518.8 88.2" style="enable-background:new 0 0 518.8 88.2;" xml:space="preserve">
<style type="text/css">
	.st0{fill:#FFFFFF;}
</style>
<g>
	<g>
		<path class="st0" d="M59,4.2H0.7L0,18.5l0.8,0.1c1.3-6.3,3.5-10.2,10-10.2h13.5v46.4c0,11.3-1.1,13.8-8.7,15v0.6H44v-0.6
			c-7.7-1.2-8.7-3.7-8.7-15V8.4h13.5c6.5,0,8.8,4,10,10.2l0.8-0.1L59,4.2z"/>
	</g>
	<g>
		<path class="st0" d="M101.8,57.8V36.1l-0.2-0.1l-15.4,4l0.1,0.5c5.3-0.7,6.1,1.2,6.1,9.1v8.2c0,8.1-1,11-6.2,11.9v0.6H108v-0.6
			C102.9,68.8,101.8,65.9,101.8,57.8z"/>
	</g>
	<g>
		<path class="st0" d="M96.9,25.7c3.2,0,5.6-2.4,5.6-5.6s-2.4-5.6-5.6-5.6c-3.3,0-5.6,2.4-5.6,5.6C91.2,23.4,93.6,25.7,96.9,25.7z"
			/>
	</g>
	<g>
		<path class="st0" d="M188.3,57.8v-8.9c0-8.5-4.9-13.1-14.8-13.1c-5.1,0-9.4,2.6-11.6,6.3v-42L161.7,0l-15.4,4l0.1,0.5
			c5.3-0.7,6.1,1.4,6.1,9.2v44.1c0,8.1-1,11-6.2,11.9v0.6h21.3v-0.6c-4.7-0.8-5.7-3.9-5.7-11.9v-6.4c0-7.6,4-12.6,9.5-12.6
			c5.3,0,7.5,3.9,7.5,9.7v9.2c0,8-0.9,11.1-5.7,11.9v0.6h21.3v-0.6C189.4,68.8,188.3,65.9,188.3,57.8z"/>
	</g>
	<g>
		<path class="st0" d="M123.6,43.5c0-3.4,1.8-5.4,5.6-5.4c4.4,0,8.1,3.2,9.1,7.4l0.6-0.1l0.4-6.7c-2.5-1.5-6-2.8-10.3-2.8
			c-9.9,0-14.7,3.6-14.7,10.2c0,13,17.7,9,17.7,16.5c0,3.7-2.3,6.1-7.1,6.1c-5.1,0-9.3-3.6-10.4-8.7l-0.5,0.1l-0.5,7.6
			c2.6,2,6.2,3.7,11.6,3.7c9.7,0,16.3-3.2,16.3-10.6C141.4,47.6,123.6,51.1,123.6,43.5z"/>
	</g>
	<path class="st0" d="M456.5,69.1c-6.2,0-8.9-6.2-8.9-15.5c0-9.1,2.5-15.6,8.9-15.6c6.3,0,9,6.5,9,15.6
		C465.6,62.9,463,69.1,456.5,69.1z M456.5,35.9c-10.7,0-18.7,7.3-18.7,17.7c0,10.4,8.1,17.7,18.7,17.7c10.8,0,18.9-7.3,18.9-17.7
		C475.5,43.2,467.3,35.9,456.5,35.9z"/>
	<g>
		<path class="st0" d="M423,36.9v0.6c5.1,0.9,4.8,3.2,2.5,9.4L420.1,61L413,46.9c-2.7-5.4-2.7-8.5,2.7-9.4v-0.6H394v0.6
			c4.8,0.9,6.4,4,8.2,7.6l12.7,25.2h4.3l10.3-25.2c1.6-4,4.2-6.9,8.3-7.6v-0.6H423z"/>
	</g>
	<g>
		<path class="st0" d="M505,36.9v0.6c5.1,0.8,4.9,2.7,3.3,6.5l-7.2,16.6l-6.3-13.9c-2-4.5-3-8.3,2.8-9.2v-0.6H476v0.6
			c4.7,0.8,6.6,3.2,8.5,7.4l12.1,26.3l-2.4,5.5c-2,4.5-4.5,8.1-7.9,8.1c-2.8,0-4.5-1.2-5.6-3.6l-0.5,0.1l0.6,5.9c0.9,0.7,3,1,4.6,1
			c6.6,0,10.5-7.9,14.4-17l11.8-27.8c1.7-4,3.7-5.5,7.2-5.9v-0.6H505z"/>
	</g>
	<g>
		<path class="st0" d="M395.6,55.9c-1.3,6.3-3.5,10.2-10,10.2h-22.3V38.2h7.9c8.9,0,11.2,1.1,12.1,7.4h0.6v-18h-0.6
			c-0.9,6.3-3.3,7.3-12.1,7.3h-7.9V8.2h19c6.3,0,8.9,3.5,9.9,8.7l0.8-0.1l-0.6-12.7h-49v0.6c7.7,1.2,8.9,3.7,8.9,15v35
			c0,11.3-1.3,13.8-8.9,15v0.6h52.3l0.7-14.3L395.6,55.9z"/>
	</g>
	<g>
		<path class="st0" d="M338.3,61.6c-1.7,4.6-5.8,7.3-11.3,7.3c-6.1,0-10.4-5.5-10.4-15.3c0-9.1,3.7-15.3,10.3-15.3
			c5.4,0,8.9,3.1,10.4,7.1l0.4-0.1l-0.3-7c-2.4-1.5-6.3-2.3-10.7-2.3c-13.1,0-20.2,6.8-20.2,17.7c0,11.3,7.2,17.7,20.1,17.7
			c4.9,0,9.2-1.3,11.6-2.9l0.3-6.7L338.3,61.6z"/>
	</g>
	<g>
		<path class="st0" d="M75.6,35.8c-3.9,0-7.7,4-9.4,8.8l-0.3-8.4l-0.2-0.1L50.8,40l0.1,0.5c5.3-0.7,6.1,1.4,6.1,9.2v8.1
			c0,8.1-0.8,11-5.9,11.9v0.6h21.4v-0.6c-5.1-0.9-6-3.8-6-11.9v-5.4c0-7.1,2.7-11.7,7.8-11.7c2.3,0,4.6,1.9,5.4,3.6l0.5-0.1l0.9-6.9
			C79.9,36.4,77.6,35.8,75.6,35.8z"/>
	</g>
	<g>
		<path class="st0" d="M305.6,4.7V4.1h-20.2l-21.7,53.7L241.2,4.1h-19.8v0.6c6.8,1.2,7.8,3.8,7.8,14.9v35c0,11.2-0.8,13.8-7.6,15
			v0.6h18.6v-0.6c-6.8-1.2-7.4-3.8-7.4-15V13.3L257,70.1h5.1l23.6-56.8v41.3c0,11.3-1,13.8-8.6,15v0.6h28.5v-0.6
			c-7.7-1.2-8.9-3.7-8.9-15v-35C296.7,8.4,297.9,5.9,305.6,4.7z"/>
	</g>
</g>
</svg>
