<?xml version="1.0" encoding="utf-8"?>
<!-- Generator: Adobe Illustrator 19.0.0, SVG Export Plug-In . SVG Version: 6.00 Build 0)  -->
<svg version="1.1" id="Слой_1" xmlns="http://www.w3.org/2000/svg" xmlns:xlink="http://www.w3.org/1999/xlink" x="0px" y="0px"
	 viewBox="0 0 237.9 40.2" style="enable-background:new 0 0 237.9 40.2;" xml:space="preserve">
<style type="text/css">
	.st0{fill:#272526;}
	.st1{fill:#292627;}
	.st2{fill:#252324;}
	.st3{fill:#232122;}
	.st4{fill:#272627;}
	.st5{fill:#2A2829;}
	.st6{fill:#302E2F;}
	.st7{fill:#292728;}
	.st8{fill:#2D2B2C;}
	.st9{fill:#2C2A2B;}
	.st10{fill:#3C3A3B;}
	.st11{fill:#525252;}
	.st12{fill:#414041;}
	.st13{fill:#575556;}
	.st14{fill:#59595A;}
	.st15{fill:#323232;}
	.st16{fill:#494849;}
	.st17{fill:#535353;}
	.st18{fill:#F9F8F9;}
</style>
<g>
	<path class="st0" d="M182.2,27.4c0.8,3.3,0.1,4.7-3.2,4.6c-6.2-0.2-12.3-0.1-18-0.1c2.2-10.1,2-20.2,0.2-30.7c4.9,0,10.4,0,15.9,0
		c3.9,0,3.9,0.1,4.1,5.1c-3.4-4.8-8.1-2.8-12.3-3c-1.4-0.1-1.3,1.3-1.3,2.2c0,1.5,0.2,3-0.1,4.5c-0.7,4.5,1,6.1,5.4,5.2
		c0.9-0.2,2-0.2,2.9,0c0.8,0.2,0.5,1.1,0.5,1.7c0,0.9-0.5,0.8-1.3,0.6c-1.4-0.4-2.9-0.4-4.4-0.6c-2.3-0.3-3.5,0.4-3.1,3
		c0.1,0.3,0,0.7,0,1c0.4,2.9-1.4,7.7,0.9,8.3C172.7,30.5,177.9,31.5,182.2,27.4z"/>
	<path class="st1" d="M26.2,5.4c-1.1-0.7-2.2-1.6-3.4-1.9c-5.5-1.4-6.7-0.4-6.7,5.2c0,5.7,0,11.3,0,17c0,2.2,0.3,4.3,2.4,6.1
		c-3.6,0-6.7,0-10.3,0c2.4-1.9,2.7-4.3,2.7-6.8c0-5.3,0-10.6,0-16c0-5.8-3.1-7.8-8.3-4.9c-3.8,2.1-2.5-0.2-2.2-1.9
		c8-1.2,16-0.3,24.1-0.5C27.3,1.6,27.2,3.4,26.2,5.4z"/>
	<path class="st2" d="M105.5,6.1c0-1.7-1.2-3-1.8-4.4c5.9-1.9,8.6,0.9,10.3,6.2c1.9,5.7,4.6,11.2,7.3,17.6c1-1.9,1.6-3.1,2.2-4.3
		c0.9-0.1,1.4,0.1,0.9,1.2c-1.5,3.3-1.4,8.9-5.2,9.1c-2.9,0.2-3.3-5.4-4.7-8.4c-2.4-5.1-4.3-10.3-6.4-15.5
		C107.6,6.3,106,7.3,105.5,6.1z"/>
	<path class="st0" d="M129.1,7.7c0.8-5.9,4.1-7.9,9.6-6c-3.1,5.1-3,25.3,0.4,30.2c-3.2,0-6.3,0-9.9,0c2.8-2.7,2.3-6,2.3-9.2
		c0-4.6-0.1-9.3-0.2-13.9c0-0.1-0.3-0.3-0.4-0.2c-0.2,0.1-0.4,0.3-0.7,0.5C129.1,9.2,128.7,8.7,129.1,7.7z"/>
	<path class="st3" d="M77.5,17.3c-4.7,4.2-3.3,9.2-1.8,14.4c-2.1,0-4.4,0-6.5,0c1.7-9.5,1.4-19.2,0.3-28.7c-0.3-2.9,0.8-2.5,2.1-2.8
		c1.6-0.4,2.9-0.4,2.9,2c-0.1,4.3,0.2,8.7-0.1,13c-0.2,2.8,1.2,2.3,2.8,1.8L77.5,17.3z"/>
	<path class="st4" d="M210.5,32.2c-5.2,0-8.7-3.3-8.7-8.2c0.1-4.6,3.4-7.9,8.4-8c5.1-0.1,9,3.2,9,7.9
		C219.4,28.8,215.7,32.2,210.5,32.2z"/>
	<path class="st5" d="M52.3,28c1.4,1.1,2.3,2.2,3.5,2.7c1.6,0.8,3.5,0.7,4.3-1.1c1.1-2.4-0.9-3-2.7-3.7c-5.2-2.2-6.6-5.7-3.5-8.4
		c2-1.8,4.5-1.8,7.4-1c-1.4,1.3-4.1,0-4.2,2.6c-0.1,2.8,2.5,2.7,4.2,3.5c2.5,1.2,4.4,2.8,3.6,5.7c-1.1,3.9-4.5,4-7.7,3.9
		C54.8,32.1,52,32.2,52.3,28z"/>
	<path class="st6" d="M227.3,36c1.4-2.5,1.5-4.9,0-7.5c-2.2-3.8-3.3-8.3-6.6-12c2.8,0,5,0,7.3,0c-0.5,3.7,0.8,6.9,3.5,9.6
		c0.9-0.2,1.5,0,1,1.1c-1,3.4-2.5,6.7-4.4,9.7C227.4,37.1,226.8,37,227.3,36z"/>
	<path class="st7" d="M155.3,18.6c-2.6-1-5.2-2.8-7.6,0c-2.4,3-2.2,6.5-0.8,9.9c1.7,3.9,5,2.5,8.5,1.6c-3.8,3.1-9.8,2.6-12.4-0.6
		c-2.6-3.1-2.3-8.7,0.7-11.3C146.8,15.3,152.6,15.4,155.3,18.6z"/>
	<path class="st8" d="M195.4,26.2c-0.8,2.1-0.7,5.4-3.3,5.5c-2.2,0.1-2.5-3.2-3.5-5c-1.9-3.3-3.5-6.7-5.4-10.2c2.3,0,4.5,0,6.8,0
		c-1,3.8,1.4,6.7,3.3,9.6c0.5,0.8,0.8-0.5,1.2-0.9C195.3,25.1,195.9,25.1,195.4,26.2z"/>
	<path class="st7" d="M77.2,17c6.2-2.1,9.2-0.2,9.4,6c0.1,3-0.2,6,1.8,8.8c-2.6,0-4.9,0-7.5,0c1.8-2.9,1.3-6,1.4-9.1
		c0.2-3.4-1.2-5.3-4.8-5.3C77.5,17.3,77.2,17,77.2,17z"/>
	<path class="st9" d="M46.5,16.1c0.9,5.6-1,10.9,2,15.7c-2.5,0-4.8,0-7.3,0c1.6-4.8,2-9.6,0-14.5C42.8,17,44.6,16.6,46.5,16.1z"/>
	<path class="st7" d="M30.5,21.4c0.1,3.4-0.8,7,1.5,10.4c-2.6,0-5,0-7.4,0c2.1-4.6,2-9.2,0.3-14.3c1.8,0.4,3.8-3.2,5.4,0.6
		C31.1,19.2,30.8,20.3,30.5,21.4z"/>
	<path class="st10" d="M105.5,6.1c1.1,0.1,2.4-0.2,2.7,1.4c-2,5.8-0.2,11.8-1,17.7c-0.3,0.7-0.8,1.2-1.7,1
		C105.5,19.4,105.5,12.8,105.5,6.1z"/>
	<path class="st11" d="M26.2,5.4c0.4-2.8-1.1-3.3-3.5-3.3c-7.4,0.1-14.9,0-22.3,0C3,0,6.1,1.4,8.9,1.2c4.8-0.3,9.7,0.2,14.5-0.2
		c4.8-0.4,4,2.7,3.9,5.4c0,0.5-0.3,1-0.8,0.3C26.2,6.5,26.3,5.9,26.2,5.4z"/>
	<path class="st12" d="M129.1,7.7c0.4,0.4,0.7,0.9,1.1,1.3c-1.7,4.5-3.2,9.1-5.7,13.3c-0.3-0.4-0.6-0.8-0.9-1.2
		C125.1,16.6,126.7,12,129.1,7.7z"/>
	<path class="st13" d="M195.4,26.2c-0.3-0.3-0.6-0.7-0.9-1c0.3-2.7,2.1-5,1.8-8.1c-0.2-1.7,2.8-0.6,5.6-1.1
		C197,18.7,197.9,23.4,195.4,26.2z"/>
	<path class="st14" d="M232.4,27.3c-0.3-0.4-0.7-0.7-1-1.1c0.8-3,2.9-5.4,2.9-8.8c0-2.4,2.3-0.8,3.6-1
		C236.1,20.1,234.2,23.7,232.4,27.3z"/>
	<path class="st15" d="M44,6.1c1.7-0.1,2.7,0.8,3,2.2c0.3,1.8-0.7,2.8-2.5,2.9c-1.6,0.1-2.5-0.8-2.5-2.3C41.9,7.4,42.6,6.4,44,6.1z"
		/>
	<path class="st16" d="M30.5,21.4c-0.1-1.1-0.1-2.2-0.2-3.3c1.3-0.7,2.5-1.6,3.8-2.1c0.9-0.3,2.1-0.3,2.8,0.6
		c0.3,0.4,0.4,1.4,0.2,1.8c-0.7,1.4-1.6,0.3-2.5,0.1C32.1,18,31.6,20.1,30.5,21.4z"/>
	<path class="st0" d="M105.5,26.1c0.6-0.3,1.1-0.6,1.7-1c0.1,1.5,0.2,3,0.5,4.4c0.1,0.8,1.5,1.7,0,2.4c-0.7,0.3-1.7,0.3-2.4,0
		c-1.4-0.6-0.5-1.5-0.2-2.5C105.2,28.4,105.3,27.2,105.5,26.1z"/>
	<path class="st17" d="M227.3,36c0.3,0.3,0.5,0.6,0.8,1c-1.1,2.3-2.8,3.5-5.4,3c-0.9-0.2-1.3-1-1.2-1.8c0.3-1.6,1.2-0.3,1.7-0.2
		C225.1,38.6,226,37,227.3,36z"/>
	<path class="st18" d="M214.6,24.5c-0.2,1.1-0.4,2.7-0.9,4.3c-0.5,1.5-1.7,2.4-3.4,2.3c-1.5-0.1-2.4-1-3-2.3c-0.7-1.5-1-3.1-0.9-4.8
		c0.3-2.9,0-6.7,4.1-6.8C214.6,17.2,214.2,21.1,214.6,24.5z"/>
</g>
</svg>
