<svg width="64" height="17" xmlns="http://www.w3.org/2000/svg">

 <g>
  <title>background</title>
  <rect fill="none" id="canvas_background" height="19" width="66" y="-1" x="-1"/>
 </g>
 <g>
  <title>Layer 1</title>
  <path id="svg_3" fill="#139AD6" d="m49.200001,4.29091l-3.400002,0c-0.199997,0 -0.399998,0.200001 -0.5,0.4l-1.399998,8.800001c0,0.200001 0.099998,0.299999 0.299999,0.299999l1.799999,0c0.200001,0 0.299999,-0.099998 0.299999,-0.299999l0.400002,-2.5c0,-0.200001 0.200001,-0.400002 0.5,-0.400002l1.099998,0c2.300003,0 3.600002,-1.099998 3.900002,-3.299999c0.200001,-0.9 0,-1.699999 -0.400002,-2.199999c-0.599998,-0.500002 -1.5,-0.800001 -2.599998,-0.800001m0.399998,3.299999c-0.200001,1.200001 -1.100002,1.200001 -2,1.200001l-0.599998,0l0.400002,-2.300001c0,-0.1 0.099998,-0.199999 0.299999,-0.199999l0.200001,0c0.599998,0 1.199997,0 1.5,0.4c0.199997,0.1 0.199997,0.4 0.199997,0.9"/>
  <path id="svg_5" fill="#263B80" d="m24.700001,4.29091l-3.4,0c-0.200001,0 -0.4,0.200001 -0.5,0.4l-1.4,8.800001c0,0.200001 0.1,0.299999 0.299999,0.299999l1.6,0c0.200001,0 0.4,-0.200001 0.5,-0.400002l0.4,-2.399998c0,-0.200001 0.200001,-0.400002 0.5,-0.400002l1.1,0c2.299999,0 3.6,-1.099998 3.9,-3.299999c0.200001,-0.9 0,-1.699999 -0.4,-2.199999c-0.6,-0.500002 -1.400002,-0.800001 -2.6,-0.800001m0.4,3.299999c-0.200001,1.200001 -1.1,1.200001 -2,1.200001l-0.5,0l0.4,-2.300001c0,-0.1 0.1,-0.199999 0.299999,-0.199999l0.200001,0c0.6,0 1.200001,0 1.5,0.4c0.1,0.1 0.200001,0.4 0.1,0.9"/>
  <path id="svg_7" fill="#263B80" d="m35,7.490909l-1.599998,0c-0.100002,0 -0.300003,0.1 -0.300003,0.200001l-0.099998,0.499998l-0.099998,-0.200001c-0.400002,-0.5 -1.100002,-0.699999 -1.900002,-0.699999c-1.799999,0 -3.4,1.4 -3.700001,3.299997c-0.199999,1 0.1,1.900002 0.6,2.5c0.5,0.600002 1.200001,0.800003 2.1,0.800003c1.5,0 2.299999,-0.900002 2.299999,-0.900002l-0.099998,0.5c0,0.200001 0.099998,0.299999 0.299999,0.299999l1.5,0c0.200001,0 0.400002,-0.200001 0.5,-0.399998l0.900002,-5.6c-0.100002,-0.099998 -0.300003,-0.299999 -0.400002,-0.299999m-2.299999,3.199999c-0.200001,0.899998 -0.9,1.599998 -1.9,1.599998c-0.5,0 -0.9,-0.200001 -1.1,-0.399998c-0.199999,-0.300003 -0.299999,-0.700001 -0.299999,-1.200001c0.1,-0.900002 0.9,-1.600002 1.799999,-1.600002c0.5,0 0.799999,0.200001 1.099998,0.400002c0.299999,0.300003 0.400002,0.800003 0.400002,1.200001"/>
  <path id="svg_9" fill="#139AD6" d="m59.400002,7.490909l-1.599998,0c-0.100002,0 -0.300003,0.1 -0.300003,0.200001l-0.099998,0.499998l-0.100002,-0.199999c-0.399998,-0.5 -1.099998,-0.699999 -1.899998,-0.699999c-1.799999,0 -3.400002,1.399998 -3.700001,3.299999c-0.200001,1 0.099998,1.900002 0.599998,2.5c0.5,0.599998 1.200005,0.799999 2.100002,0.799999c1.5,0 2.299999,-0.899998 2.299999,-0.899998l-0.099998,0.5c0,0.199997 0.099998,0.299999 0.299999,0.299999l1.5,0c0.200001,0 0.399998,-0.200001 0.5,-0.400002l0.899998,-5.599998c-0.099998,-0.1 -0.200001,-0.300001 -0.399998,-0.300001m-2.300003,3.199999c-0.200001,0.899998 -0.900002,1.599998 -1.900002,1.599998c-0.5,0 -0.899998,-0.200001 -1.099998,-0.399998c-0.200001,-0.300003 -0.299999,-0.700001 -0.299999,-1.200001c0.099998,-0.900002 0.899998,-1.600002 1.799999,-1.600002c0.5,0 0.799999,0.200001 1.099998,0.400002c0.400002,0.300003 0.500004,0.800003 0.400002,1.200001"/>
  <path id="svg_12" fill="#263B80" d="m43.700001,7.490909l-1.700001,0c-0.200001,0 -0.299999,0.1 -0.399998,0.200001l-2.200001,3.4l-1,-3.200001c-0.099998,-0.199999 -0.200001,-0.299999 -0.5,-0.299999l-1.599998,0c-0.200001,0 -0.300003,0.200001 -0.300003,0.4l1.799999,5.300001l-1.699997,2.399997c-0.100002,0.199999 0,0.499996 0.199997,0.499996l1.600002,0c0.200001,0 0.299999,-0.099998 0.399998,-0.199996l5.5,-7.899998c0.299999,-0.299999 0.100002,-0.6 -0.099998,-0.6"/>
  <path id="svg_14" fill="#139AD6" d="m61.299999,4.590909l-1.400002,9c0,0.200001 0.100002,0.299999 0.300003,0.299999l1.399998,0c0.200001,0 0.400002,-0.200001 0.5,-0.399998l1.400002,-8.800001c0,-0.200001 -0.100002,-0.300001 -0.299999,-0.300001l-1.600002,0c-0.099998,-0.099998 -0.199997,0 -0.299999,0.200001"/>
  <path id="svg_16" fill="#263B80" d="m12,1.290909c-0.7,-0.800001 -2,-1.200001 -3.8,-1.200001l-5,0c-0.3,0 -0.6,0.299999 -0.7,0.6l-2,13.100001c0,0.299999 0.2,0.5 0.4,0.5l3.1,0l0.8,-4.900002l0,0.200001c0.1,-0.299999 0.4,-0.599998 0.7,-0.599998l1.5,0c2.9,0 5.1,-1.200001 5.8,-4.5c0,-0.1 0,-0.200001 0,-0.300001c-0.1,0 -0.1,0 0,0c0.099999,-1.300001 -0.1,-2.1 -0.8,-2.9"/>
  <path id="svg_18" fill="#139AD6" d="m12.7,4.190909l0,0c0,0.1 0,0.199999 0,0.299999c-0.7,3.4 -2.9,4.500002 -5.8,4.500002l-1.5,0c-0.3,0 -0.6,0.299999 -0.7,0.599998l-1,6.099998c0,0.199999 0.1,0.399998 0.4,0.399998l2.6,0c0.3,0 0.6,-0.199999 0.6,-0.499995l0,-0.099998l0.5,-3.100002l0,-0.200001c0,-0.299999 0.3,-0.5 0.599999,-0.5l0.400001,0c2.5,0 4.5,-1 5,-3.999998c0.2,-1.200001 0.099999,-2.300001 -0.5,-3c-0.1,-0.200001 -0.3,-0.4 -0.6,-0.5"/>
  <path id="svg_20" fill="#232C65" d="m12,3.890908c-0.1,0 -0.2,-0.1 -0.3,-0.1c-0.099999,0 -0.2,0 -0.3,-0.1c-0.4,-0.1 -0.799999,-0.1 -1.299999,-0.1l-3.900001,0c-0.1,0 -0.2,0 -0.3,0.1c-0.2,0.1 -0.3,0.300001 -0.3,0.5l-0.8,5.200001l0,0.200001c0.1,-0.299999 0.4,-0.600002 0.7,-0.600002l1.5,0c2.9,0 5.1,-1.199999 5.8,-4.499998c0,-0.1 0,-0.200001 0.099999,-0.300001c-0.2,-0.1 -0.299999,-0.199999 -0.5,-0.199999c-0.299999,-0.1 -0.299999,-0.1 -0.4,-0.1"/>
 </g>
</svg>